<?xml version="1.0" encoding="UTF-8" standalone="no"?>
<svg
   xmlns:dc="http://purl.org/dc/elements/1.1/"
   xmlns:cc="http://creativecommons.org/ns#"
   xmlns:rdf="http://www.w3.org/1999/02/22-rdf-syntax-ns#"
   xmlns:svg="http://www.w3.org/2000/svg"
   xmlns="http://www.w3.org/2000/svg"
   xmlns:xlink="http://www.w3.org/1999/xlink"
   xmlns:sodipodi="http://sodipodi.sourceforge.net/DTD/sodipodi-0.dtd"
   xmlns:inkscape="http://www.inkscape.org/namespaces/inkscape"
   viewBox="0 0 7.4083001 7.4083"
   version="1.1"
   x="0px"
   y="0px"
   id="svg88"
   sodipodi:docname="noun_sakura_1565590_grad4_crop.svg"
   inkscape:version="0.92.4 (5da689c313, 2019-01-14)"
   width="7.4082999"
   height="7.4082999">
  <metadata
     id="metadata94">
    <rdf:RDF>
      <cc:Work
         rdf:about="">
        <dc:format>image/svg+xml</dc:format>
        <dc:type
           rdf:resource="http://purl.org/dc/dcmitype/StillImage" />
        <dc:title></dc:title>
      </cc:Work>
    </rdf:RDF>
  </metadata>
  <defs
     id="defs92">
    <linearGradient
       id="linearGradient850"
       inkscape:collect="always">
      <stop
         id="stop846"
         offset="0"
         style="stop-color:#ff8080;stop-opacity:1;" />
      <stop
         id="stop848"
         offset="1"
         style="stop-color:#ffffff;stop-opacity:1" />
    </linearGradient>
    <linearGradient
       id="linearGradient844"
       inkscape:collect="always">
      <stop
         id="stop840"
         offset="0"
         style="stop-color:#ff8080;stop-opacity:1;" />
      <stop
         id="stop842"
         offset="1"
         style="stop-color:#ffffff;stop-opacity:1" />
    </linearGradient>
    <linearGradient
       id="linearGradient838"
       inkscape:collect="always">
      <stop
         id="stop834"
         offset="0"
         style="stop-color:#ff8080;stop-opacity:1;" />
      <stop
         id="stop836"
         offset="1"
         style="stop-color:#ffffff;stop-opacity:1" />
    </linearGradient>
    <linearGradient
       inkscape:collect="always"
       id="linearGradient4806">
      <stop
         style="stop-color:#ff8080;stop-opacity:1;"
         offset="0"
         id="stop4802" />
      <stop
         style="stop-color:#ffffff;stop-opacity:1"
         offset="1"
         id="stop4804" />
    </linearGradient>
    <linearGradient
       inkscape:collect="always"
       id="linearGradient4798">
      <stop
         style="stop-color:#ff8080;stop-opacity:1;"
         offset="0"
         id="stop4794" />
      <stop
         style="stop-color:#ffffff;stop-opacity:1"
         offset="1"
         id="stop4796" />
    </linearGradient>
    <linearGradient
       inkscape:collect="always"
       xlink:href="#linearGradient4806"
       id="linearGradient4691"
       x1="6.1961179"
       y1="295.7005"
       x2="4.3713479"
       y2="292.97842"
       gradientUnits="userSpaceOnUse" />
    <linearGradient
       inkscape:collect="always"
       xlink:href="#linearGradient4798"
       id="linearGradient4743"
       x1="2.2795267"
       y1="295.69104"
       x2="4.2885995"
       y2="293.22275"
       gradientUnits="userSpaceOnUse" />
    <linearGradient
       inkscape:collect="always"
       xlink:href="#linearGradient838"
       id="linearGradient4751"
       x1="1.0560632"
       y1="291.95477"
       x2="4.1359849"
       y2="293.10349"
       gradientUnits="userSpaceOnUse" />
    <linearGradient
       inkscape:collect="always"
       xlink:href="#linearGradient844"
       id="linearGradient4800"
       x1="4.2329655"
       y1="289.6723"
       x2="4.10745"
       y2="292.94125"
       gradientUnits="userSpaceOnUse" />
    <linearGradient
       inkscape:collect="always"
       xlink:href="#linearGradient850"
       id="linearGradient4808"
       x1="7.4232454"
       y1="291.97803"
       x2="4.2529135"
       y2="292.86398"
       gradientUnits="userSpaceOnUse" />
  </defs>
  <sodipodi:namedview
     pagecolor="#ffffff"
     bordercolor="#666666"
     borderopacity="1"
     objecttolerance="10"
     gridtolerance="10"
     guidetolerance="10"
     inkscape:pageopacity="0"
     inkscape:pageshadow="2"
     inkscape:window-width="1347"
     inkscape:window-height="975"
     id="namedview90"
     showgrid="false"
     inkscape:zoom="37.889762"
     inkscape:cx="-4.3484524"
     inkscape:cy="2.9433744"
     inkscape:window-x="107"
     inkscape:window-y="2"
     inkscape:window-maximized="0"
     inkscape:current-layer="svg88"
     fit-margin-top="0"
     fit-margin-left="0"
     fit-margin-right="0"
     fit-margin-bottom="0"
     inkscape:pagecheckerboard="false" />
  <g
     transform="translate(-0.52920102,-289.06966)"
     id="g82">
    <path
       style="fill:url(#linearGradient4800);fill-opacity:1;stroke:none"
       d="M 4.5671808,289.26981 4.29402,289.62445 a 0.07657521,0.07657521 0 0 1 -0.1213311,0 l -0.2731021,-0.35457 a 0.07657521,0.07657521 0 0 0 -0.1074208,-0.0139 2.1986804,2.1986804 0 0 0 0.3152838,3.68526 2.3309713,2.3309713 0 0 1 1.4215319,-1.85539 2.1986804,2.1986804 0 0 0 -0.8544848,-1.82991 0.07657521,0.07657521 0 0 0 -0.1073161,0.0139 z"
       id="path72"
       inkscape:connector-curvature="0" />
    <path
       style="fill:url(#linearGradient4751);fill-opacity:1;stroke:none"
       d="m 0.7863149,291.53169 0.252872,0.36938 a 0.07657521,0.07657521 0 0 1 -0.03749,0.11539 l -0.42160298,0.15017 a 0.07657521,0.07657521 0 0 0 -0.04643,0.0979 2.1986804,2.1986804 0 0 0 3.60232098,0.83895 2.3309713,2.3309713 0 0 1 -1.3253,-1.9253 2.1986804,2.1986804 0 0 0 -2.00439898,0.24719 0.07657521,0.07657521 0 0 0 -0.01997,0.10635 z"
       id="path74"
       inkscape:connector-curvature="0" />
    <path
       style="fill:url(#linearGradient4743);fill-opacity:1;stroke:none"
       d="m 1.7691399,295.82647 0.429444,-0.12635 a 0.07657521,0.07657521 0 0 1 0.09816,0.0713 l 0.01254,0.44737 a 0.07657521,0.07657521 0 0 0 0.07872,0.0744 2.1986804,2.1986804 0 0 0 1.9110731,-3.16676 2.3309713,2.3309713 0 0 1 -2.2406121,0.66549 2.1986804,2.1986804 0 0 0 -0.384302,1.98268 0.07657521,0.07657521 0 0 0 0.09498,0.0519 z"
       id="path76"
       inkscape:connector-curvature="0" />
    <path
       style="fill:url(#linearGradient4691);fill-opacity:1;stroke:none"
       d="m 6.1574243,296.2189 0.012541,-0.44747 a 0.07657521,0.07657521 0 0 1 0.098159,-0.0713 l 0.4293516,0.12632 a 0.07657521,0.07657521 0 0 0 0.095085,-0.0519 2.1986804,2.1986804 0 0 0 -2.4212132,-2.79613 2.3309713,2.3309713 0 0 1 -0.05947,2.3366 2.1986804,2.1986804 0 0 0 1.766887,0.97817 0.07657521,0.07657521 0 0 0 0.078665,-0.0743 z"
       id="path78"
       inkscape:connector-curvature="0" />
    <path
       style="fill:url(#linearGradient4808);fill-opacity:1;stroke:none"
       d="m 7.8867092,292.16667 -0.4216945,-0.15021 a 0.07657521,0.07657521 0 0 1 -0.037493,-0.11539 l 0.2528162,-0.3693 a 0.07657521,0.07657521 0 0 0 -0.01996,-0.10647 2.1986804,2.1986804 0 0 0 -3.4074643,1.43867 2.3309713,2.3309713 0 0 1 2.2038548,0.77861 2.1986804,2.1986804 0 0 0 1.4762978,-1.37814 0.07657521,0.07657521 0 0 0 -0.046359,-0.0978 z"
       id="path80"
       inkscape:connector-curvature="0" />
  </g>
  <text
     x="-0.50280869"
     y="21.241199"
     font-size="5px"
     font-weight="bold"
     id="text84"
     style="font-weight:bold;font-size:5px;font-family:'Helvetica Neue', Helvetica, Arial-Unicode, Arial, Sans-serif;fill:#000000">Created by Pham Duy Phuong Hung</text>
  <text
     x="-0.50280869"
     y="26.241199"
     font-size="5px"
     font-weight="bold"
     id="text86"
     style="font-weight:bold;font-size:5px;font-family:'Helvetica Neue', Helvetica, Arial-Unicode, Arial, Sans-serif;fill:#000000">from the Noun Project</text>
  <path
     style="fill:none;stroke-width:0.01319618"
     d="M 3.5147001,2.1236835 C 3.1427855,1.8978587 2.8589032,1.5900493 2.6667088,1.2042187 2.3083597,0.48483219 2.382457,-0.38744091 2.8580244,-1.0479459 c 0.1602222,-0.2225292 0.4187368,-0.4656035 0.4863005,-0.4572553 0.026117,0.00323 0.068341,0.048394 0.1817386,0.194406 0.081244,0.1046112 0.157796,0.1964265 0.1701143,0.204034 0.045652,0.028193 0.089523,-0.00898 0.2394353,-0.2028918 0.1776177,-0.2297466 0.1831226,-0.2322766 0.2963679,-0.136211 0.3799487,0.3223095 0.642316,0.75935619 0.741775,1.23563569 0.025521,0.1222134 0.053037,0.3762523 0.051722,0.4775184 l -6.848e-4,0.052785 -0.1674528,0.08281 C 4.2300881,0.71307639 3.7662133,1.3216156 3.6278654,2.0157844 c -0.015188,0.076208 -0.028885,0.1425777 -0.030438,0.1474884 -0.00155,0.00491 -0.03878,-0.012904 -0.082727,-0.039589 z"
     id="path3807"
     inkscape:connector-curvature="0" />
</svg>
